<mxfile host="65bd71144e">
    <diagram id="prtHgNgQTEPvFCAcTncT" name="Page-1">
        <mxGraphModel dx="594" dy="290" grid="0" gridSize="10" guides="1" tooltips="1" connect="1" arrows="1" fold="1" page="1" pageScale="1" pageWidth="827" pageHeight="1169" background="none" math="0" shadow="0">
            <root>
                <mxCell id="0"/>
                <mxCell id="1" parent="0"/>
                <mxCell id="UGej3R62JCGmz6cc_ZLg-1" value="施設一覧ページ" style="rounded=1;whiteSpace=wrap;html=1;" parent="1" vertex="1">
                    <mxGeometry x="30" y="120" width="90" height="20" as="geometry"/>
                </mxCell>
                <mxCell id="UGej3R62JCGmz6cc_ZLg-6" style="edgeStyle=orthogonalEdgeStyle;rounded=0;orthogonalLoop=1;jettySize=auto;html=1;endArrow=none;endFill=0;" parent="1" source="UGej3R62JCGmz6cc_ZLg-2" edge="1">
                    <mxGeometry relative="1" as="geometry">
                        <mxPoint x="120" y="130" as="targetPoint"/>
                    </mxGeometry>
                </mxCell>
                <mxCell id="UGej3R62JCGmz6cc_ZLg-2" value="ユーザーログインページ" style="rounded=1;whiteSpace=wrap;html=1;" parent="1" vertex="1">
                    <mxGeometry x="160" y="120" width="140" height="20" as="geometry"/>
                </mxCell>
                <mxCell id="UGej3R62JCGmz6cc_ZLg-5" style="edgeStyle=orthogonalEdgeStyle;rounded=0;orthogonalLoop=1;jettySize=auto;html=1;entryX=1;entryY=0.5;entryDx=0;entryDy=0;endArrow=none;endFill=0;" parent="1" source="UGej3R62JCGmz6cc_ZLg-4" target="UGej3R62JCGmz6cc_ZLg-1" edge="1">
                    <mxGeometry relative="1" as="geometry"/>
                </mxCell>
                <mxCell id="UGej3R62JCGmz6cc_ZLg-4" value="ユーザー新規登録ページ" style="rounded=1;whiteSpace=wrap;html=1;" parent="1" vertex="1">
                    <mxGeometry x="160" y="160" width="140" height="20" as="geometry"/>
                </mxCell>
                <mxCell id="UGej3R62JCGmz6cc_ZLg-9" style="edgeStyle=orthogonalEdgeStyle;rounded=0;orthogonalLoop=1;jettySize=auto;html=1;entryX=1;entryY=0.5;entryDx=0;entryDy=0;endArrow=none;endFill=0;" parent="1" source="UGej3R62JCGmz6cc_ZLg-8" target="UGej3R62JCGmz6cc_ZLg-1" edge="1">
                    <mxGeometry relative="1" as="geometry">
                        <mxPoint x="110" y="170" as="targetPoint"/>
                        <Array as="points">
                            <mxPoint x="140" y="250"/>
                            <mxPoint x="140" y="130"/>
                        </Array>
                    </mxGeometry>
                </mxCell>
                <mxCell id="UGej3R62JCGmz6cc_ZLg-8" value="施設詳細ページ" style="rounded=1;whiteSpace=wrap;html=1;" parent="1" vertex="1">
                    <mxGeometry x="160" y="240" width="90" height="20" as="geometry"/>
                </mxCell>
                <mxCell id="UGej3R62JCGmz6cc_ZLg-10" style="edgeStyle=orthogonalEdgeStyle;rounded=0;orthogonalLoop=1;jettySize=auto;html=1;endArrow=none;endFill=0;" parent="1" source="UGej3R62JCGmz6cc_ZLg-11" edge="1">
                    <mxGeometry relative="1" as="geometry">
                        <mxPoint x="120" y="130" as="targetPoint"/>
                        <Array as="points">
                            <mxPoint x="140" y="330"/>
                            <mxPoint x="140" y="130"/>
                        </Array>
                    </mxGeometry>
                </mxCell>
                <mxCell id="UGej3R62JCGmz6cc_ZLg-11" value="asobiba一覧ページ" style="rounded=1;whiteSpace=wrap;html=1;" parent="1" vertex="1">
                    <mxGeometry x="160" y="320" width="110" height="20" as="geometry"/>
                </mxCell>
                <mxCell id="UGej3R62JCGmz6cc_ZLg-12" style="edgeStyle=orthogonalEdgeStyle;rounded=0;orthogonalLoop=1;jettySize=auto;html=1;endArrow=none;endFill=0;" parent="1" source="UGej3R62JCGmz6cc_ZLg-13" edge="1">
                    <mxGeometry relative="1" as="geometry">
                        <mxPoint x="120" y="130" as="targetPoint"/>
                        <Array as="points">
                            <mxPoint x="140" y="210"/>
                            <mxPoint x="140" y="130"/>
                        </Array>
                    </mxGeometry>
                </mxCell>
                <mxCell id="UGej3R62JCGmz6cc_ZLg-13" value="施設投稿ページ" style="rounded=1;whiteSpace=wrap;html=1;" parent="1" vertex="1">
                    <mxGeometry x="160" y="200" width="90" height="20" as="geometry"/>
                </mxCell>
                <mxCell id="UGej3R62JCGmz6cc_ZLg-15" style="edgeStyle=orthogonalEdgeStyle;rounded=0;orthogonalLoop=1;jettySize=auto;html=1;entryX=1;entryY=0.5;entryDx=0;entryDy=0;endArrow=none;endFill=0;" parent="1" source="UGej3R62JCGmz6cc_ZLg-14" target="UGej3R62JCGmz6cc_ZLg-19" edge="1">
                    <mxGeometry relative="1" as="geometry">
                        <Array as="points"/>
                    </mxGeometry>
                </mxCell>
                <mxCell id="UGej3R62JCGmz6cc_ZLg-14" value="room編集ページ" style="rounded=1;whiteSpace=wrap;html=1;" parent="1" vertex="1">
                    <mxGeometry x="320" y="280" width="90" height="20" as="geometry"/>
                </mxCell>
                <mxCell id="UGej3R62JCGmz6cc_ZLg-16" style="edgeStyle=orthogonalEdgeStyle;rounded=0;orthogonalLoop=1;jettySize=auto;html=1;endArrow=none;endFill=0;" parent="1" source="UGej3R62JCGmz6cc_ZLg-17" edge="1">
                    <mxGeometry relative="1" as="geometry">
                        <mxPoint x="250" y="250" as="targetPoint"/>
                    </mxGeometry>
                </mxCell>
                <mxCell id="UGej3R62JCGmz6cc_ZLg-17" value="room登録ページ" style="rounded=1;whiteSpace=wrap;html=1;" parent="1" vertex="1">
                    <mxGeometry x="320" y="240" width="90" height="20" as="geometry"/>
                </mxCell>
                <mxCell id="UGej3R62JCGmz6cc_ZLg-21" style="edgeStyle=orthogonalEdgeStyle;rounded=0;orthogonalLoop=1;jettySize=auto;html=1;entryX=0.382;entryY=0.033;entryDx=0;entryDy=0;entryPerimeter=0;endArrow=none;endFill=0;" parent="1" source="UGej3R62JCGmz6cc_ZLg-19" target="UGej3R62JCGmz6cc_ZLg-11" edge="1">
                    <mxGeometry relative="1" as="geometry"/>
                </mxCell>
                <mxCell id="UGej3R62JCGmz6cc_ZLg-22" style="edgeStyle=orthogonalEdgeStyle;rounded=0;orthogonalLoop=1;jettySize=auto;html=1;endArrow=none;endFill=0;entryX=0.5;entryY=1;entryDx=0;entryDy=0;" parent="1" source="UGej3R62JCGmz6cc_ZLg-19" edge="1" target="UGej3R62JCGmz6cc_ZLg-8">
                    <mxGeometry relative="1" as="geometry">
                        <mxPoint x="195" y="270" as="targetPoint"/>
                        <Array as="points"/>
                    </mxGeometry>
                </mxCell>
                <mxCell id="UGej3R62JCGmz6cc_ZLg-19" value="asobibaページ" style="rounded=1;whiteSpace=wrap;html=1;" parent="1" vertex="1">
                    <mxGeometry x="160" y="280" width="90" height="20" as="geometry"/>
                </mxCell>
                <mxCell id="UGej3R62JCGmz6cc_ZLg-24" style="edgeStyle=orthogonalEdgeStyle;rounded=0;orthogonalLoop=1;jettySize=auto;html=1;entryX=1;entryY=0.5;entryDx=0;entryDy=0;endArrow=none;endFill=0;" parent="1" source="UGej3R62JCGmz6cc_ZLg-23" target="UGej3R62JCGmz6cc_ZLg-8" edge="1">
                    <mxGeometry relative="1" as="geometry"/>
                </mxCell>
                <mxCell id="UGej3R62JCGmz6cc_ZLg-23" value="施設編集ページ" style="rounded=1;whiteSpace=wrap;html=1;" parent="1" vertex="1">
                    <mxGeometry x="320" y="200" width="90" height="20" as="geometry"/>
                </mxCell>
            </root>
        </mxGraphModel>
    </diagram>
</mxfile>